<svg width="183" height="114" viewBox="0 0 183 114" fill="none" xmlns="http://www.w3.org/2000/svg">
<path d="M5.4794 50V9.27273H19.2209C21.8724 9.27273 24.0798 9.73674 25.843 10.6648C27.6196 11.5928 28.9519 12.8589 29.8402 14.4631C30.7285 16.0672 31.1726 17.8902 31.1726 19.9318C31.1726 21.6288 30.8875 23.0805 30.3175 24.2869C29.7474 25.4934 28.9718 26.4678 27.9908 27.2102C27.0097 27.9527 25.916 28.4896 24.7095 28.821V29.1392C26.022 29.232 27.2947 29.696 28.5277 30.5312C29.7607 31.3532 30.7749 32.5066 31.5703 33.9915C32.3658 35.4763 32.7635 37.2528 32.7635 39.321C32.7635 41.3759 32.3061 43.2121 31.3913 44.8295C30.4766 46.4337 29.0713 47.6998 27.1754 48.6278C25.2929 49.5426 22.8932 50 19.9766 50H5.4794ZM9.19815 46.6591H19.9766C23.1186 46.6591 25.4387 45.9631 26.9368 44.571C28.4482 43.179 29.2038 41.429 29.2038 39.321C29.2038 37.7699 28.826 36.3646 28.0703 35.1051C27.3279 33.8324 26.2739 32.8248 24.9084 32.0824C23.5561 31.34 21.9652 30.9688 20.1357 30.9688H9.19815V46.6591ZM9.19815 27.6676H19.5589C21.1631 27.6676 22.5684 27.3362 23.7749 26.6733C24.9813 26.0104 25.9226 25.0956 26.5987 23.929C27.2749 22.7623 27.6129 21.4299 27.6129 19.9318C27.6129 17.7708 26.9103 16.0142 25.505 14.6619C24.0997 13.2964 22.005 12.6136 19.2209 12.6136H9.19815V27.6676ZM51.6709 50.6364C48.8205 50.6364 46.3546 49.9735 44.2731 48.6477C42.1917 47.3087 40.5809 45.4593 39.4407 43.0994C38.3138 40.7263 37.7504 37.9953 37.7504 34.9062C37.7504 31.8305 38.3138 29.0994 39.4407 26.7131C40.5809 24.3134 42.1519 22.4375 44.1538 21.0852C46.169 19.7197 48.4957 19.0369 51.1339 19.0369C52.7911 19.0369 54.3887 19.3419 55.9265 19.9517C57.4644 20.5483 58.8432 21.4697 60.0629 22.7159C61.2959 23.9489 62.2703 25.5066 62.9862 27.3892C63.7021 29.2585 64.0601 31.4725 64.0601 34.0312V35.7812H40.1964V32.6591H60.4407C60.4407 30.697 60.043 28.9337 59.2476 27.3693C58.4654 25.7917 57.3716 24.5455 55.9663 23.6307C54.5743 22.7159 52.9635 22.2585 51.1339 22.2585C49.1983 22.2585 47.4947 22.7756 46.0231 23.8097C44.5515 24.8437 43.3981 26.2093 42.5629 27.9062C41.7409 29.6032 41.3233 31.4593 41.3101 33.4744V35.3438C41.3101 37.7699 41.7277 39.8911 42.5629 41.7074C43.4114 43.5104 44.6112 44.9091 46.1623 45.9034C47.7135 46.8977 49.5496 47.3949 51.6709 47.3949C53.1159 47.3949 54.382 47.1695 55.4691 46.7188C56.5695 46.268 57.4909 45.6648 58.2334 44.9091C58.989 44.1402 59.5591 43.2983 59.9436 42.3835L63.3044 43.4773C62.8404 44.7633 62.078 45.9498 61.0174 47.0369C59.9701 48.1241 58.6576 48.9991 57.0799 49.6619C55.5155 50.3116 53.7125 50.6364 51.6709 50.6364ZM82.2117 19.4545V22.5369H67.635V19.4545H82.2117ZM72.189 12.1364H75.7487V42.0256C75.7487 43.2983 75.9674 44.2992 76.4049 45.0284C76.8424 45.7443 77.4125 46.2547 78.1151 46.5597C78.8178 46.8513 79.5668 46.9972 80.3623 46.9972C80.8263 46.9972 81.224 46.9706 81.5555 46.9176C81.8869 46.8513 82.1786 46.785 82.4305 46.7188L83.1862 49.9205C82.8415 50.053 82.4172 50.1723 81.9134 50.2784C81.4096 50.3977 80.7865 50.4574 80.0441 50.4574C78.7449 50.4574 77.492 50.1723 76.2856 49.6023C75.0924 49.0322 74.1114 48.1837 73.3424 47.0568C72.5735 45.9299 72.189 44.5312 72.189 42.8608V12.1364ZM100.602 19.4545V22.5369H86.0253V19.4545H100.602ZM90.5793 12.1364H94.139V42.0256C94.139 43.2983 94.3577 44.2992 94.7952 45.0284C95.2327 45.7443 95.8028 46.2547 96.5055 46.5597C97.2081 46.8513 97.9572 46.9972 98.7526 46.9972C99.2166 46.9972 99.6144 46.9706 99.9458 46.9176C100.277 46.8513 100.569 46.785 100.821 46.7188L101.576 49.9205C101.232 50.053 100.808 50.1723 100.304 50.2784C99.8 50.3977 99.1769 50.4574 98.4344 50.4574C97.1352 50.4574 95.8823 50.1723 94.6759 49.6023C93.4827 49.0322 92.5017 48.1837 91.7327 47.0568C90.9638 45.9299 90.5793 44.5312 90.5793 42.8608V12.1364ZM118.982 50.6364C116.132 50.6364 113.666 49.9735 111.585 48.6477C109.503 47.3087 107.892 45.4593 106.752 43.0994C105.625 40.7263 105.062 37.9953 105.062 34.9062C105.062 31.8305 105.625 29.0994 106.752 26.7131C107.892 24.3134 109.463 22.4375 111.465 21.0852C113.481 19.7197 115.807 19.0369 118.445 19.0369C120.103 19.0369 121.7 19.3419 123.238 19.9517C124.776 20.5483 126.155 21.4697 127.374 22.7159C128.607 23.9489 129.582 25.5066 130.298 27.3892C131.014 29.2585 131.372 31.4725 131.372 34.0312V35.7812H107.508V32.6591H127.752C127.752 30.697 127.355 28.9337 126.559 27.3693C125.777 25.7917 124.683 24.5455 123.278 23.6307C121.886 22.7159 120.275 22.2585 118.445 22.2585C116.51 22.2585 114.806 22.7756 113.335 23.8097C111.863 24.8437 110.71 26.2093 109.874 27.9062C109.052 29.6032 108.635 31.4593 108.622 33.4744V35.3438C108.622 37.7699 109.039 39.8911 109.874 41.7074C110.723 43.5104 111.923 44.9091 113.474 45.9034C115.025 46.8977 116.861 47.3949 118.982 47.3949C120.427 47.3949 121.694 47.1695 122.781 46.7188C123.881 46.268 124.802 45.6648 125.545 44.9091C126.301 44.1402 126.871 43.2983 127.255 42.3835L130.616 43.4773C130.152 44.7633 129.39 45.9498 128.329 47.0369C127.282 48.1241 125.969 48.9991 124.392 49.6619C122.827 50.3116 121.024 50.6364 118.982 50.6364ZM137.492 50V19.4545H140.932V24.1477H141.191C141.801 22.6098 142.861 21.3703 144.373 20.429C145.897 19.4744 147.621 18.9972 149.543 18.9972C149.835 18.9972 150.16 19.0038 150.518 19.017C150.876 19.0303 151.174 19.0436 151.413 19.0568V22.6562C151.253 22.6297 150.975 22.59 150.577 22.5369C150.18 22.4839 149.749 22.4574 149.285 22.4574C147.694 22.4574 146.275 22.7955 145.029 23.4716C143.796 24.1345 142.822 25.0559 142.106 26.2358C141.39 27.4157 141.032 28.7614 141.032 30.2727V50H137.492Z" fill="white"/>
<path d="M40.0511 73.8331H30.108C29.9754 72.8123 29.7036 71.8909 29.2926 71.0689C28.8816 70.2469 28.3381 69.5443 27.6619 68.9609C26.9858 68.3776 26.1837 67.9335 25.2557 67.6286C24.3409 67.3104 23.3267 67.1513 22.2131 67.1513C20.2377 67.1513 18.5341 67.6352 17.1023 68.603C15.6837 69.5708 14.59 70.9695 13.821 72.799C13.0653 74.6285 12.6875 76.8426 12.6875 79.4411C12.6875 82.1456 13.072 84.4126 13.8409 86.2422C14.6231 88.0585 15.7169 89.4306 17.1222 90.3587C18.5407 91.2734 20.2178 91.7308 22.1534 91.7308C23.2405 91.7308 24.2282 91.5916 25.1165 91.3132C26.018 91.0348 26.8068 90.6304 27.483 90.1001C28.1724 89.5566 28.7358 88.9003 29.1733 88.1314C29.6241 87.3492 29.9356 86.4676 30.108 85.4865L40.0511 85.5462C39.8788 87.3492 39.3551 89.1257 38.4801 90.8757C37.6184 92.6257 36.4318 94.2232 34.9205 95.6683C33.4091 97.1001 31.5663 98.2403 29.392 99.0888C27.2311 99.9373 24.7519 100.362 21.9545 100.362C18.2689 100.362 14.9678 99.5528 12.0511 97.9354C9.14773 96.3047 6.85417 93.9316 5.17045 90.8161C3.48674 87.7005 2.64489 83.9089 2.64489 79.4411C2.64489 74.96 3.5 71.1617 5.21023 68.0462C6.92045 64.9306 9.2339 62.5642 12.1506 60.9467C15.0672 59.3293 18.3352 58.5206 21.9545 58.5206C24.4205 58.5206 26.7008 58.8653 28.7955 59.5547C30.8902 60.2308 32.733 61.2251 34.3239 62.5376C35.9148 63.8369 37.2074 65.4344 38.2017 67.3303C39.196 69.2261 39.8125 71.3937 40.0511 73.8331ZM52.6147 100.322C50.6659 100.322 48.9358 99.9969 47.4244 99.3473C45.9263 98.6844 44.7397 97.6901 43.8647 96.3643C43.003 95.0253 42.5721 93.3482 42.5721 91.3331C42.5721 89.6361 42.8704 88.2043 43.467 87.0376C44.0636 85.871 44.8856 84.9231 45.9329 84.1939C46.9803 83.4647 48.1867 82.9145 49.5522 82.5433C50.9178 82.1589 52.3761 81.9003 53.9272 81.7678C55.664 81.6087 57.0627 81.4429 58.1233 81.2706C59.1839 81.085 59.9528 80.8265 60.4301 80.495C60.9206 80.1503 61.1659 79.6664 61.1659 79.0433V78.9439C61.1659 77.9231 60.8146 77.1342 60.1119 76.5774C59.4093 76.0206 58.4613 75.7422 57.2682 75.7422C55.9822 75.7422 54.9481 76.0206 54.1659 76.5774C53.3837 77.1342 52.8865 77.9032 52.6744 78.8842L43.7057 78.5661C43.9708 76.71 44.6536 75.0528 45.7539 73.5945C46.8676 72.1229 48.3922 70.9695 50.3278 70.1342C52.2767 69.2857 54.6166 68.8615 57.3477 68.8615C59.2966 68.8615 61.093 69.0935 62.7369 69.5575C64.3808 70.0083 65.8127 70.6712 67.0324 71.5462C68.2521 72.4079 69.1933 73.4685 69.8562 74.728C70.5324 75.9875 70.8704 77.4259 70.8704 79.0433V99.8047H61.7227V95.549H61.4841C60.9405 96.5831 60.2445 97.4581 59.396 98.174C58.5608 98.8899 57.5731 99.4268 56.4329 99.7848C55.306 100.143 54.0333 100.322 52.6147 100.322ZM55.6176 93.9581C56.6649 93.9581 57.6062 93.746 58.4414 93.3217C59.2899 92.8975 59.9661 92.3142 60.4699 91.5717C60.9736 90.8161 61.2255 89.9411 61.2255 88.9467V86.0433C60.9471 86.1892 60.6091 86.3217 60.2113 86.4411C59.8269 86.5604 59.4026 86.6731 58.9386 86.7791C58.4746 86.8852 57.9973 86.978 57.5068 87.0575C57.0163 87.1371 56.5456 87.21 56.0949 87.2763C55.1801 87.4221 54.3979 87.6475 53.7483 87.9524C53.1119 88.2573 52.6214 88.6551 52.2767 89.1456C51.9452 89.6229 51.7795 90.1929 51.7795 90.8558C51.7795 91.8634 52.1375 92.6323 52.8534 93.1626C53.5825 93.6929 54.5039 93.9581 55.6176 93.9581ZM75.1364 99.8047V69.2592H84.8609V99.8047H75.1364ZM80.0086 65.6996C78.6431 65.6996 77.4698 65.2488 76.4887 64.3473C75.5077 63.4325 75.0171 62.3321 75.0171 61.0462C75.0171 59.7734 75.5077 58.6863 76.4887 57.7848C77.4698 56.87 78.6431 56.4126 80.0086 56.4126C81.3874 56.4126 82.5607 56.87 83.5285 57.7848C84.5096 58.6863 85.0001 59.7734 85.0001 61.0462C85.0001 62.3321 84.5096 63.4325 83.5285 64.3473C82.5607 65.2488 81.3874 65.6996 80.0086 65.6996ZM99.0949 82.3842V99.8047H89.3705V69.2592H98.6177V74.8672H98.9557C99.6319 72.9979 100.785 71.5329 102.416 70.4723C104.047 69.3984 105.989 68.8615 108.243 68.8615C110.39 68.8615 112.253 69.3454 113.831 70.3132C115.422 71.2678 116.655 72.6068 117.53 74.3303C118.418 76.0405 118.855 78.0424 118.842 80.3359V99.8047H109.118V82.245C109.131 80.5481 108.7 79.2223 107.825 78.2678C106.963 77.3132 105.764 76.8359 104.226 76.8359C103.205 76.8359 102.303 77.0613 101.521 77.5121C100.752 77.9496 100.156 78.5793 99.7313 79.4013C99.3203 80.2232 99.1082 81.2176 99.0949 82.3842ZM140.424 69.2592V76.4183H121.154V69.2592H140.424ZM125.191 61.9411H134.916V90.1996C134.916 90.7962 135.008 91.2801 135.194 91.6513C135.393 92.0092 135.678 92.2678 136.049 92.4268C136.42 92.5727 136.865 92.6456 137.382 92.6456C137.753 92.6456 138.144 92.6125 138.555 92.5462C138.979 92.4666 139.297 92.4003 139.509 92.3473L140.981 99.3672C140.517 99.4998 139.861 99.6655 139.012 99.8643C138.177 100.063 137.176 100.189 136.009 100.242C133.729 100.348 131.774 100.083 130.143 99.4467C128.526 98.7971 127.286 97.7895 126.424 96.424C125.576 95.0585 125.165 93.3416 125.191 91.2734V61.9411ZM152.317 100.322C150.368 100.322 148.638 99.9969 147.126 99.3473C145.628 98.6844 144.442 97.6901 143.567 96.3643C142.705 95.0253 142.274 93.3482 142.274 91.3331C142.274 89.6361 142.572 88.2043 143.169 87.0376C143.765 85.871 144.587 84.9231 145.635 84.1939C146.682 83.4647 147.889 82.9145 149.254 82.5433C150.62 82.1589 152.078 81.9003 153.629 81.7678C155.366 81.6087 156.765 81.4429 157.825 81.2706C158.886 81.085 159.655 80.8265 160.132 80.495C160.622 80.1503 160.868 79.6664 160.868 79.0433V78.9439C160.868 77.9231 160.516 77.1342 159.814 76.5774C159.111 76.0206 158.163 75.7422 156.97 75.7422C155.684 75.7422 154.65 76.0206 153.868 76.5774C153.086 77.1342 152.588 77.9032 152.376 78.8842L143.408 78.5661C143.673 76.71 144.355 75.0528 145.456 73.5945C146.569 72.1229 148.094 70.9695 150.03 70.1342C151.979 69.2857 154.319 68.8615 157.05 68.8615C158.998 68.8615 160.795 69.0935 162.439 69.5575C164.083 70.0083 165.515 70.6712 166.734 71.5462C167.954 72.4079 168.895 73.4685 169.558 74.728C170.234 75.9875 170.572 77.4259 170.572 79.0433V99.8047H161.425V95.549H161.186C160.642 96.5831 159.946 97.4581 159.098 98.174C158.263 98.8899 157.275 99.4268 156.135 99.7848C155.008 100.143 153.735 100.322 152.317 100.322ZM155.319 93.9581C156.367 93.9581 157.308 93.746 158.143 93.3217C158.992 92.8975 159.668 92.3142 160.172 91.5717C160.676 90.8161 160.927 89.9411 160.927 88.9467V86.0433C160.649 86.1892 160.311 86.3217 159.913 86.4411C159.529 86.5604 159.105 86.6731 158.64 86.7791C158.176 86.8852 157.699 86.978 157.209 87.0575C156.718 87.1371 156.247 87.21 155.797 87.2763C154.882 87.4221 154.1 87.6475 153.45 87.9524C152.814 88.2573 152.323 88.6551 151.979 89.1456C151.647 89.6229 151.481 90.1929 151.481 90.8558C151.481 91.8634 151.839 92.6323 152.555 93.1626C153.284 93.6929 154.206 93.9581 155.319 93.9581Z" fill="white"/>
</svg>
