<svg width="231" height="114" viewBox="0 0 231 114" fill="none" xmlns="http://www.w3.org/2000/svg">
<path d="M29.4872 50V9.27273H43.2287C45.8802 9.27273 48.0876 9.73674 49.8509 10.6648C51.6274 11.5928 52.9598 12.8589 53.848 14.4631C54.7363 16.0672 55.1804 17.8902 55.1804 19.9318C55.1804 21.6288 54.8954 23.0805 54.3253 24.2869C53.7552 25.4934 52.9796 26.4678 51.9986 27.2102C51.0175 27.9527 49.9238 28.4896 48.7173 28.821V29.1392C50.0298 29.232 51.3026 29.696 52.5355 30.5312C53.7685 31.3532 54.7827 32.5066 55.5781 33.9915C56.3736 35.4763 56.7713 37.2528 56.7713 39.321C56.7713 41.3759 56.3139 43.2121 55.3991 44.8295C54.4844 46.4337 53.0791 47.6998 51.1832 48.6278C49.3007 49.5426 46.901 50 43.9844 50H29.4872ZM33.206 46.6591H43.9844C47.1264 46.6591 49.4465 45.9631 50.9446 44.571C52.456 43.179 53.2116 41.429 53.2116 39.321C53.2116 37.7699 52.8338 36.3646 52.0781 35.1051C51.3357 33.8324 50.2817 32.8248 48.9162 32.0824C47.5639 31.34 45.973 30.9688 44.1435 30.9688H33.206V46.6591ZM33.206 27.6676H43.5668C45.1709 27.6676 46.5762 27.3362 47.7827 26.6733C48.9891 26.0104 49.9304 25.0956 50.6065 23.929C51.2827 22.7623 51.6207 21.4299 51.6207 19.9318C51.6207 17.7708 50.9181 16.0142 49.5128 14.6619C48.1075 13.2964 46.0128 12.6136 43.2287 12.6136H33.206V27.6676ZM75.6787 50.6364C72.8283 50.6364 70.3624 49.9735 68.2809 48.6477C66.1995 47.3087 64.5887 45.4593 63.4486 43.0994C62.3217 40.7263 61.7582 37.9953 61.7582 34.9062C61.7582 31.8305 62.3217 29.0994 63.4486 26.7131C64.5887 24.3134 66.1597 22.4375 68.1616 21.0852C70.1768 19.7197 72.5035 19.0369 75.1417 19.0369C76.7989 19.0369 78.3965 19.3419 79.9343 19.9517C81.4722 20.5483 82.851 21.4697 84.0707 22.7159C85.3037 23.9489 86.2781 25.5066 86.994 27.3892C87.7099 29.2585 88.0679 31.4725 88.0679 34.0312V35.7812H64.2042V32.6591H84.4486C84.4486 30.697 84.0508 28.9337 83.2554 27.3693C82.4732 25.7917 81.3794 24.5455 79.9741 23.6307C78.5821 22.7159 76.9713 22.2585 75.1417 22.2585C73.2061 22.2585 71.5025 22.7756 70.0309 23.8097C68.5593 24.8437 67.4059 26.2093 66.5707 27.9062C65.7487 29.6032 65.3311 31.4593 65.3179 33.4744V35.3438C65.3179 37.7699 65.7355 39.8911 66.5707 41.7074C67.4192 43.5104 68.619 44.9091 70.1701 45.9034C71.7213 46.8977 73.5575 47.3949 75.6787 47.3949C77.1237 47.3949 78.3898 47.1695 79.477 46.7188C80.5773 46.268 81.4987 45.6648 82.2412 44.9091C82.9968 44.1402 83.5669 43.2983 83.9514 42.3835L87.3122 43.4773C86.8482 44.7633 86.0859 45.9498 85.0253 47.0369C83.9779 48.1241 82.6654 48.9991 81.0878 49.6619C79.5234 50.3116 77.7203 50.6364 75.6787 50.6364ZM106.22 19.4545V22.5369H91.6428V19.4545H106.22ZM96.1968 12.1364H99.7565V42.0256C99.7565 43.2983 99.9752 44.2992 100.413 45.0284C100.85 45.7443 101.42 46.2547 102.123 46.5597C102.826 46.8513 103.575 46.9972 104.37 46.9972C104.834 46.9972 105.232 46.9706 105.563 46.9176C105.895 46.8513 106.186 46.785 106.438 46.7188L107.194 49.9205C106.849 50.053 106.425 50.1723 105.921 50.2784C105.417 50.3977 104.794 50.4574 104.052 50.4574C102.753 50.4574 101.5 50.1723 100.293 49.6023C99.1002 49.0322 98.1192 48.1837 97.3502 47.0568C96.5813 45.9299 96.1968 44.5312 96.1968 42.8608V12.1364ZM124.61 19.4545V22.5369H110.033V19.4545H124.61ZM114.587 12.1364H118.147V42.0256C118.147 43.2983 118.366 44.2992 118.803 45.0284C119.241 45.7443 119.811 46.2547 120.513 46.5597C121.216 46.8513 121.965 46.9972 122.76 46.9972C123.224 46.9972 123.622 46.9706 123.954 46.9176C124.285 46.8513 124.577 46.785 124.829 46.7188L125.584 49.9205C125.24 50.053 124.815 50.1723 124.312 50.2784C123.808 50.3977 123.185 50.4574 122.442 50.4574C121.143 50.4574 119.89 50.1723 118.684 49.6023C117.491 49.0322 116.509 48.1837 115.741 47.0568C114.972 45.9299 114.587 44.5312 114.587 42.8608V12.1364ZM142.99 50.6364C140.14 50.6364 137.674 49.9735 135.592 48.6477C133.511 47.3087 131.9 45.4593 130.76 43.0994C129.633 40.7263 129.07 37.9953 129.07 34.9062C129.07 31.8305 129.633 29.0994 130.76 26.7131C131.9 24.3134 133.471 22.4375 135.473 21.0852C137.488 19.7197 139.815 19.0369 142.453 19.0369C144.11 19.0369 145.708 19.3419 147.246 19.9517C148.784 20.5483 150.163 21.4697 151.382 22.7159C152.615 23.9489 153.59 25.5066 154.306 27.3892C155.021 29.2585 155.379 31.4725 155.379 34.0312V35.7812H131.516V32.6591H151.76C151.76 30.697 151.362 28.9337 150.567 27.3693C149.785 25.7917 148.691 24.5455 147.286 23.6307C145.894 22.7159 144.283 22.2585 142.453 22.2585C140.518 22.2585 138.814 22.7756 137.342 23.8097C135.871 24.8437 134.717 26.2093 133.882 27.9062C133.06 29.6032 132.643 31.4593 132.629 33.4744V35.3438C132.629 37.7699 133.047 39.8911 133.882 41.7074C134.731 43.5104 135.931 44.9091 137.482 45.9034C139.033 46.8977 140.869 47.3949 142.99 47.3949C144.435 47.3949 145.701 47.1695 146.789 46.7188C147.889 46.268 148.81 45.6648 149.553 44.9091C150.308 44.1402 150.878 43.2983 151.263 42.3835L154.624 43.4773C154.16 44.7633 153.397 45.9498 152.337 47.0369C151.289 48.1241 149.977 48.9991 148.399 49.6619C146.835 50.3116 145.032 50.6364 142.99 50.6364ZM161.5 50V19.4545H164.94V24.1477H165.199C165.809 22.6098 166.869 21.3703 168.381 20.429C169.905 19.4744 171.629 18.9972 173.551 18.9972C173.843 18.9972 174.167 19.0038 174.525 19.017C174.883 19.0303 175.182 19.0436 175.42 19.0568V22.6562C175.261 22.6297 174.983 22.59 174.585 22.5369C174.187 22.4839 173.756 22.4574 173.292 22.4574C171.702 22.4574 170.283 22.7955 169.037 23.4716C167.804 24.1345 166.829 25.0559 166.114 26.2358C165.398 27.4157 165.04 28.7614 165.04 30.2727V50H161.5Z" fill="#1113A3"/>
<path d="M64.0589 73.8331H54.1158C53.9832 72.8123 53.7114 71.8909 53.3004 71.0689C52.8894 70.2469 52.3459 69.5443 51.6697 68.9609C50.9936 68.3776 50.1915 67.9335 49.2635 67.6286C48.3487 67.3104 47.3345 67.1513 46.2209 67.1513C44.2455 67.1513 42.5419 67.6352 41.1101 68.603C39.6915 69.5708 38.5978 70.9695 37.8288 72.799C37.0732 74.6285 36.6953 76.8426 36.6953 79.4411C36.6953 82.1456 37.0798 84.4126 37.8487 86.2422C38.6309 88.0585 39.7247 89.4306 41.13 90.3587C42.5485 91.2734 44.2256 91.7308 46.1612 91.7308C47.2483 91.7308 48.236 91.5916 49.1243 91.3132C50.0258 91.0348 50.8146 90.6304 51.4908 90.1001C52.1802 89.5566 52.7436 88.9003 53.1811 88.1314C53.6319 87.3492 53.9434 86.4676 54.1158 85.4865L64.0589 85.5462C63.8866 87.3492 63.3629 89.1257 62.4879 90.8757C61.6262 92.6257 60.4396 94.2232 58.9283 95.6683C57.4169 97.1001 55.5741 98.2403 53.3999 99.0888C51.2389 99.9373 48.7597 100.362 45.9624 100.362C42.2768 100.362 38.9756 99.5528 36.0589 97.9354C33.1555 96.3047 30.862 93.9316 29.1783 90.8161C27.4946 87.7005 26.6527 83.9089 26.6527 79.4411C26.6527 74.96 27.5078 71.1617 29.218 68.0462C30.9283 64.9306 33.2417 62.5642 36.1584 60.9467C39.075 59.3293 42.343 58.5206 45.9624 58.5206C48.4283 58.5206 50.7086 58.8653 52.8033 59.5547C54.898 60.2308 56.7408 61.2251 58.3317 62.5376C59.9226 63.8369 61.2152 65.4344 62.2095 67.3303C63.2038 69.2261 63.8203 71.3937 64.0589 73.8331ZM76.6226 100.322C74.6737 100.322 72.9436 99.9969 71.4322 99.3473C69.9341 98.6844 68.7476 97.6901 67.8726 96.3643C67.0108 95.0253 66.5799 93.3482 66.5799 91.3331C66.5799 89.6361 66.8782 88.2043 67.4748 87.0376C68.0714 85.871 68.8934 84.9231 69.9407 84.1939C70.9881 83.4647 72.1945 82.9145 73.5601 82.5433C74.9256 82.1589 76.3839 81.9003 77.9351 81.7678C79.6718 81.6087 81.0705 81.4429 82.1311 81.2706C83.1917 81.085 83.9606 80.8265 84.4379 80.495C84.9284 80.1503 85.1737 79.6664 85.1737 79.0433V78.9439C85.1737 77.9231 84.8224 77.1342 84.1197 76.5774C83.4171 76.0206 82.4691 75.7422 81.276 75.7422C79.99 75.7422 78.9559 76.0206 78.1737 76.5774C77.3915 77.1342 76.8943 77.9032 76.6822 78.8842L67.7135 78.5661C67.9786 76.71 68.6614 75.0528 69.7618 73.5945C70.8754 72.1229 72.4 70.9695 74.3356 70.1342C76.2845 69.2857 78.6245 68.8615 81.3555 68.8615C83.3044 68.8615 85.1008 69.0935 86.7447 69.5575C88.3887 70.0083 89.8205 70.6712 91.0402 71.5462C92.2599 72.4079 93.2012 73.4685 93.864 74.728C94.5402 75.9875 94.8782 77.4259 94.8782 79.0433V99.8047H85.7305V95.549H85.4919C84.9483 96.5831 84.2523 97.4581 83.4038 98.174C82.5686 98.8899 81.5809 99.4268 80.4407 99.7848C79.3138 100.143 78.0411 100.322 76.6226 100.322ZM79.6254 93.9581C80.6727 93.9581 81.614 93.746 82.4493 93.3217C83.2977 92.8975 83.9739 92.3142 84.4777 91.5717C84.9815 90.8161 85.2334 89.9411 85.2334 88.9467V86.0433C84.9549 86.1892 84.6169 86.3217 84.2191 86.4411C83.8347 86.5604 83.4104 86.6731 82.9464 86.7791C82.4824 86.8852 82.0051 86.978 81.5146 87.0575C81.0241 87.1371 80.5534 87.21 80.1027 87.2763C79.1879 87.4221 78.4057 87.6475 77.7561 87.9524C77.1197 88.2573 76.6292 88.6551 76.2845 89.1456C75.953 89.6229 75.7873 90.1929 75.7873 90.8558C75.7873 91.8634 76.1453 92.6323 76.8612 93.1626C77.5904 93.6929 78.5118 93.9581 79.6254 93.9581ZM99.1443 99.8047V69.2592H108.869V99.8047H99.1443ZM104.016 65.6996C102.651 65.6996 101.478 65.2488 100.497 64.3473C99.5155 63.4325 99.0249 62.3321 99.0249 61.0462C99.0249 59.7734 99.5155 58.6863 100.497 57.7848C101.478 56.87 102.651 56.4126 104.016 56.4126C105.395 56.4126 106.569 56.87 107.536 57.7848C108.517 58.6863 109.008 59.7734 109.008 61.0462C109.008 62.3321 108.517 63.4325 107.536 64.3473C106.569 65.2488 105.395 65.6996 104.016 65.6996ZM123.103 82.3842V99.8047H113.378V69.2592H122.625V74.8672H122.964C123.64 72.9979 124.793 71.5329 126.424 70.4723C128.054 69.3984 129.997 68.8615 132.25 68.8615C134.398 68.8615 136.261 69.3454 137.839 70.3132C139.429 71.2678 140.662 72.6068 141.537 74.3303C142.426 76.0405 142.863 78.0424 142.85 80.3359V99.8047H133.125V82.245C133.139 80.5481 132.708 79.2223 131.833 78.2678C130.971 77.3132 129.771 76.8359 128.233 76.8359C127.213 76.8359 126.311 77.0613 125.529 77.5121C124.76 77.9496 124.163 78.5793 123.739 79.4013C123.328 80.2232 123.116 81.2176 123.103 82.3842ZM164.432 69.2592V76.4183H145.162V69.2592H164.432ZM149.199 61.9411H158.923V90.1996C158.923 90.7962 159.016 91.2801 159.202 91.6513C159.401 92.0092 159.686 92.2678 160.057 92.4268C160.428 92.5727 160.872 92.6456 161.389 92.6456C161.761 92.6456 162.152 92.6125 162.563 92.5462C162.987 92.4666 163.305 92.4003 163.517 92.3473L164.989 99.3672C164.525 99.4998 163.869 99.6655 163.02 99.8643C162.185 100.063 161.184 100.189 160.017 100.242C157.737 100.348 155.781 100.083 154.151 99.4467C152.533 98.7971 151.294 97.7895 150.432 96.424C149.584 95.0585 149.173 93.3416 149.199 91.2734V61.9411ZM176.324 100.322C174.376 100.322 172.645 99.9969 171.134 99.3473C169.636 98.6844 168.449 97.6901 167.574 96.3643C166.713 95.0253 166.282 93.3482 166.282 91.3331C166.282 89.6361 166.58 88.2043 167.177 87.0376C167.773 85.871 168.595 84.9231 169.643 84.1939C170.69 83.4647 171.896 82.9145 173.262 82.5433C174.627 82.1589 176.086 81.9003 177.637 81.7678C179.374 81.6087 180.772 81.4429 181.833 81.2706C182.894 81.085 183.663 80.8265 184.14 80.495C184.63 80.1503 184.876 79.6664 184.876 79.0433V78.9439C184.876 77.9231 184.524 77.1342 183.822 76.5774C183.119 76.0206 182.171 75.7422 180.978 75.7422C179.692 75.7422 178.658 76.0206 177.876 76.5774C177.093 77.1342 176.596 77.9032 176.384 78.8842L167.415 78.5661C167.68 76.71 168.363 75.0528 169.464 73.5945C170.577 72.1229 172.102 70.9695 174.038 70.1342C175.986 69.2857 178.326 68.8615 181.057 68.8615C183.006 68.8615 184.803 69.0935 186.447 69.5575C188.091 70.0083 189.522 70.6712 190.742 71.5462C191.962 72.4079 192.903 73.4685 193.566 74.728C194.242 75.9875 194.58 77.4259 194.58 79.0433V99.8047H185.432V95.549H185.194C184.65 96.5831 183.954 97.4581 183.106 98.174C182.27 98.8899 181.283 99.4268 180.143 99.7848C179.016 100.143 177.743 100.322 176.324 100.322ZM179.327 93.9581C180.375 93.9581 181.316 93.746 182.151 93.3217C183 92.8975 183.676 92.3142 184.18 91.5717C184.683 90.8161 184.935 89.9411 184.935 88.9467V86.0433C184.657 86.1892 184.319 86.3217 183.921 86.4411C183.537 86.5604 183.112 86.6731 182.648 86.7791C182.184 86.8852 181.707 86.978 181.216 87.0575C180.726 87.1371 180.255 87.21 179.805 87.2763C178.89 87.4221 178.108 87.6475 177.458 87.9524C176.822 88.2573 176.331 88.6551 175.986 89.1456C175.655 89.6229 175.489 90.1929 175.489 90.8558C175.489 91.8634 175.847 92.6323 176.563 93.1626C177.292 93.6929 178.214 93.9581 179.327 93.9581Z" fill="#1113A3"/>
</svg>
